<svg width="148" height="44" viewBox="0 0 148 44" fill="none" xmlns="http://www.w3.org/2000/svg">
<g opacity="0.7" clip-path="url(#clip0_1_3912)">
<path d="M38.0039 15.3334H28.0039C26.163 15.3334 24.6706 16.8258 24.6706 18.6667V27C24.6706 28.841 26.163 30.3334 28.0039 30.3334H38.0039C39.8449 30.3334 41.3373 28.841 41.3373 27V18.6667C41.3373 16.8258 39.8449 15.3334 38.0039 15.3334Z" stroke="white" stroke-width="2" stroke-linecap="round" stroke-linejoin="round"/>
<path d="M24.6706 20.3334H41.3373M29.6706 13.6667V17V13.6667ZM36.3373 13.6667V17V13.6667Z" stroke="white" stroke-width="2" stroke-linecap="round" stroke-linejoin="round"/>
</g>
<path opacity="0.7" d="M57.0586 16.2109C58.5117 16.2109 59.6393 16.5938 60.4414 17.3594C61.2435 18.125 61.6888 18.9948 61.7773 19.9688H60.2617C60.0898 19.2292 59.7461 18.6432 59.2305 18.2109C58.7201 17.7786 58.0013 17.5625 57.0742 17.5625C55.944 17.5625 55.0299 17.9609 54.332 18.7578C53.6393 19.5495 53.293 20.7656 53.293 22.4062C53.293 23.75 53.6055 24.8411 54.2305 25.6797C54.8607 26.513 55.7982 26.9297 57.043 26.9297C58.1888 26.9297 59.0612 26.4896 59.6602 25.6094C59.9779 25.1458 60.2148 24.5365 60.3711 23.7812H61.8867C61.7513 24.9896 61.3034 26.0026 60.543 26.8203C59.6315 27.8047 58.4023 28.2969 56.8555 28.2969C55.5221 28.2969 54.4023 27.8932 53.4961 27.0859C52.3034 26.0182 51.707 24.3698 51.707 22.1406C51.707 20.4479 52.1549 19.0599 53.0508 17.9766C54.0195 16.7995 55.3555 16.2109 57.0586 16.2109ZM63.5977 16.4844H65.0039V20.7656C65.3372 20.3438 65.6367 20.0469 65.9023 19.875C66.3555 19.5781 66.9206 19.4297 67.5977 19.4297C68.8112 19.4297 69.6341 19.8542 70.0664 20.7031C70.3008 21.1667 70.418 21.8099 70.418 22.6328V28H68.9727V22.7266C68.9727 22.112 68.8945 21.6615 68.7383 21.375C68.4831 20.9167 68.0039 20.6875 67.3008 20.6875C66.7174 20.6875 66.1888 20.888 65.7148 21.2891C65.2409 21.6901 65.0039 22.4479 65.0039 23.5625V28H63.5977V16.4844ZM75.9883 19.4453C76.582 19.4453 77.1576 19.5859 77.7148 19.8672C78.2721 20.1432 78.6966 20.5026 78.9883 20.9453C79.2695 21.3672 79.457 21.8594 79.5508 22.4219C79.6341 22.8073 79.6758 23.4219 79.6758 24.2656H73.543C73.569 25.1146 73.7695 25.7969 74.1445 26.3125C74.5195 26.8229 75.1003 27.0781 75.8867 27.0781C76.6211 27.0781 77.207 26.8359 77.6445 26.3516C77.8945 26.0703 78.0716 25.7448 78.1758 25.375H79.5586C79.5221 25.6823 79.3997 26.026 79.1914 26.4062C78.9883 26.7812 78.7591 27.0885 78.5039 27.3281C78.0768 27.7448 77.5482 28.026 76.918 28.1719C76.5794 28.2552 76.1966 28.2969 75.7695 28.2969C74.7279 28.2969 73.8451 27.9193 73.1211 27.1641C72.3971 26.4036 72.0352 25.3411 72.0352 23.9766C72.0352 22.6328 72.3997 21.5417 73.1289 20.7031C73.8581 19.8646 74.8112 19.4453 75.9883 19.4453ZM78.2305 23.1484C78.1732 22.5391 78.0404 22.0521 77.832 21.6875C77.4466 21.0104 76.8034 20.6719 75.9023 20.6719C75.2565 20.6719 74.7148 20.9062 74.2773 21.375C73.8398 21.8385 73.6081 22.4297 73.582 23.1484H78.2305ZM84.6367 19.3906C85.5794 19.3906 86.3451 19.6198 86.9336 20.0781C87.5273 20.5365 87.8841 21.3255 88.0039 22.4453H86.6367C86.5534 21.9297 86.3633 21.5026 86.0664 21.1641C85.7695 20.8203 85.293 20.6484 84.6367 20.6484C83.7409 20.6484 83.1003 21.0859 82.7148 21.9609C82.4648 22.5286 82.3398 23.2292 82.3398 24.0625C82.3398 24.901 82.5169 25.6068 82.8711 26.1797C83.2253 26.7526 83.7826 27.0391 84.543 27.0391C85.1263 27.0391 85.5872 26.862 85.9258 26.5078C86.2695 26.1484 86.5065 25.6589 86.6367 25.0391H88.0039C87.8477 26.1484 87.457 26.9609 86.832 27.4766C86.207 27.987 85.4076 28.2422 84.4336 28.2422C83.3398 28.2422 82.4674 27.8438 81.8164 27.0469C81.1654 26.2448 80.8398 25.2448 80.8398 24.0469C80.8398 22.5781 81.1966 21.4349 81.9102 20.6172C82.6237 19.7995 83.5326 19.3906 84.6367 19.3906ZM89.3789 16.5234H90.7305V23.1875L94.3398 19.6328H96.1367L92.9336 22.7656L96.3164 28H94.5195L91.9102 23.7812L90.7305 24.8594V28H89.3789V16.5234ZM105.184 27.0938C106.116 27.0938 106.754 26.7422 107.098 26.0391C107.447 25.3307 107.621 24.5443 107.621 23.6797C107.621 22.8984 107.496 22.263 107.246 21.7734C106.85 21.0026 106.168 20.6172 105.199 20.6172C104.34 20.6172 103.715 20.9453 103.324 21.6016C102.934 22.2578 102.738 23.0495 102.738 23.9766C102.738 24.8672 102.934 25.6094 103.324 26.2031C103.715 26.7969 104.335 27.0938 105.184 27.0938ZM105.238 19.3906C106.316 19.3906 107.228 19.75 107.973 20.4688C108.717 21.1875 109.09 22.2448 109.09 23.6406C109.09 24.9896 108.762 26.1042 108.105 26.9844C107.449 27.8646 106.431 28.3047 105.051 28.3047C103.9 28.3047 102.986 27.9167 102.309 27.1406C101.632 26.3594 101.293 25.3125 101.293 24C101.293 22.5938 101.65 21.474 102.363 20.6406C103.077 19.8073 104.035 19.3906 105.238 19.3906ZM112.176 19.6328V25.1875C112.176 25.6146 112.243 25.9635 112.379 26.2344C112.629 26.7344 113.095 26.9844 113.777 26.9844C114.757 26.9844 115.423 26.5469 115.777 25.6719C115.97 25.2031 116.066 24.5599 116.066 23.7422V19.6328H117.473V28H116.145L116.16 26.7656C115.978 27.0833 115.751 27.3516 115.48 27.5703C114.944 28.0078 114.293 28.2266 113.527 28.2266C112.335 28.2266 111.522 27.8281 111.09 27.0312C110.855 26.6042 110.738 26.0339 110.738 25.3203V19.6328H112.176ZM119.957 17.2969H121.379V19.6328H122.715V20.7812H121.379V26.2422C121.379 26.5339 121.478 26.7292 121.676 26.8281C121.785 26.8854 121.967 26.9141 122.223 26.9141C122.29 26.9141 122.363 26.9141 122.441 26.9141C122.52 26.9089 122.611 26.901 122.715 26.8906V28C122.553 28.0469 122.384 28.0807 122.207 28.1016C122.035 28.1224 121.848 28.1328 121.645 28.1328C120.988 28.1328 120.543 27.9661 120.309 27.6328C120.074 27.2943 119.957 26.8568 119.957 26.3203V20.7812H118.824V19.6328H119.957V17.2969Z" fill="white"/>
<defs>
<clipPath id="clip0_1_3912">
<rect width="20" height="20" fill="white" transform="translate(23.0039 12)"/>
</clipPath>
</defs>
</svg>
