<svg width="148" height="44" viewBox="0 0 148 44" fill="none" xmlns="http://www.w3.org/2000/svg">
<g opacity="0.7" clip-path="url(#clip0_1_3906)">
<path d="M43.0039 15.3334H33.0039C31.1629 15.3334 29.6705 16.8258 29.6705 18.6667V27C29.6705 28.841 31.1629 30.3334 33.0039 30.3334H43.0039C44.8448 30.3334 46.3372 28.841 46.3372 27V18.6667C46.3372 16.8258 44.8448 15.3334 43.0039 15.3334Z" stroke="white" stroke-width="2" stroke-linecap="round" stroke-linejoin="round"/>
<path d="M29.6705 20.3334H46.3372M34.6705 13.6667V17V13.6667ZM41.3372 13.6667V17V13.6667Z" stroke="white" stroke-width="2" stroke-linecap="round" stroke-linejoin="round"/>
</g>
<path opacity="0.7" d="M62.0586 16.2109C63.5117 16.2109 64.6393 16.5938 65.4414 17.3594C66.2435 18.125 66.6888 18.9948 66.7773 19.9688H65.2617C65.0898 19.2292 64.7461 18.6432 64.2305 18.2109C63.7201 17.7786 63.0013 17.5625 62.0742 17.5625C60.944 17.5625 60.0299 17.9609 59.332 18.7578C58.6393 19.5495 58.293 20.7656 58.293 22.4062C58.293 23.75 58.6055 24.8411 59.2305 25.6797C59.8607 26.513 60.7982 26.9297 62.043 26.9297C63.1888 26.9297 64.0612 26.4896 64.6602 25.6094C64.9779 25.1458 65.2148 24.5365 65.3711 23.7812H66.8867C66.7513 24.9896 66.3034 26.0026 65.543 26.8203C64.6315 27.8047 63.4023 28.2969 61.8555 28.2969C60.5221 28.2969 59.4023 27.8932 58.4961 27.0859C57.3034 26.0182 56.707 24.3698 56.707 22.1406C56.707 20.4479 57.1549 19.0599 58.0508 17.9766C59.0195 16.7995 60.3555 16.2109 62.0586 16.2109ZM68.5977 16.4844H70.0039V20.7656C70.3372 20.3438 70.6367 20.0469 70.9023 19.875C71.3555 19.5781 71.9206 19.4297 72.5977 19.4297C73.8112 19.4297 74.6341 19.8542 75.0664 20.7031C75.3008 21.1667 75.418 21.8099 75.418 22.6328V28H73.9727V22.7266C73.9727 22.112 73.8945 21.6615 73.7383 21.375C73.4831 20.9167 73.0039 20.6875 72.3008 20.6875C71.7174 20.6875 71.1888 20.888 70.7148 21.2891C70.2409 21.6901 70.0039 22.4479 70.0039 23.5625V28H68.5977V16.4844ZM80.9883 19.4453C81.582 19.4453 82.1576 19.5859 82.7148 19.8672C83.2721 20.1432 83.6966 20.5026 83.9883 20.9453C84.2695 21.3672 84.457 21.8594 84.5508 22.4219C84.6341 22.8073 84.6758 23.4219 84.6758 24.2656H78.543C78.569 25.1146 78.7695 25.7969 79.1445 26.3125C79.5195 26.8229 80.1003 27.0781 80.8867 27.0781C81.6211 27.0781 82.207 26.8359 82.6445 26.3516C82.8945 26.0703 83.0716 25.7448 83.1758 25.375H84.5586C84.5221 25.6823 84.3997 26.026 84.1914 26.4062C83.9883 26.7812 83.7591 27.0885 83.5039 27.3281C83.0768 27.7448 82.5482 28.026 81.918 28.1719C81.5794 28.2552 81.1966 28.2969 80.7695 28.2969C79.7279 28.2969 78.8451 27.9193 78.1211 27.1641C77.3971 26.4036 77.0352 25.3411 77.0352 23.9766C77.0352 22.6328 77.3997 21.5417 78.1289 20.7031C78.8581 19.8646 79.8112 19.4453 80.9883 19.4453ZM83.2305 23.1484C83.1732 22.5391 83.0404 22.0521 82.832 21.6875C82.4466 21.0104 81.8034 20.6719 80.9023 20.6719C80.2565 20.6719 79.7148 20.9062 79.2773 21.375C78.8398 21.8385 78.6081 22.4297 78.582 23.1484H83.2305ZM89.6367 19.3906C90.5794 19.3906 91.3451 19.6198 91.9336 20.0781C92.5273 20.5365 92.8841 21.3255 93.0039 22.4453H91.6367C91.5534 21.9297 91.3633 21.5026 91.0664 21.1641C90.7695 20.8203 90.293 20.6484 89.6367 20.6484C88.7409 20.6484 88.1003 21.0859 87.7148 21.9609C87.4648 22.5286 87.3398 23.2292 87.3398 24.0625C87.3398 24.901 87.5169 25.6068 87.8711 26.1797C88.2253 26.7526 88.7826 27.0391 89.543 27.0391C90.1263 27.0391 90.5872 26.862 90.9258 26.5078C91.2695 26.1484 91.5065 25.6589 91.6367 25.0391H93.0039C92.8477 26.1484 92.457 26.9609 91.832 27.4766C91.207 27.987 90.4076 28.2422 89.4336 28.2422C88.3398 28.2422 87.4674 27.8438 86.8164 27.0469C86.1654 26.2448 85.8398 25.2448 85.8398 24.0469C85.8398 22.5781 86.1966 21.4349 86.9102 20.6172C87.6237 19.7995 88.5326 19.3906 89.6367 19.3906ZM94.3789 16.5234H95.7305V23.1875L99.3398 19.6328H101.137L97.9336 22.7656L101.316 28H99.5195L96.9102 23.7812L95.7305 24.8594V28H94.3789V16.5234ZM106.863 19.6719H108.293V28H106.863V19.6719ZM106.863 16.5234H108.293V18.1172H106.863V16.5234ZM110.426 19.6328H111.762V20.8203C112.158 20.3307 112.577 19.9792 113.02 19.7656C113.462 19.5521 113.954 19.4453 114.496 19.4453C115.684 19.4453 116.486 19.8594 116.902 20.6875C117.132 21.1406 117.246 21.7891 117.246 22.6328V28H115.816V22.7266C115.816 22.2161 115.741 21.8047 115.59 21.4922C115.34 20.9714 114.887 20.7109 114.23 20.7109C113.897 20.7109 113.624 20.7448 113.41 20.8125C113.025 20.9271 112.686 21.1562 112.395 21.5C112.16 21.776 112.007 22.0625 111.934 22.3594C111.866 22.651 111.832 23.0703 111.832 23.6172V28H110.426V19.6328Z" fill="white"/>
<defs>
<clipPath id="clip0_1_3906">
<rect width="20" height="20" fill="white" transform="translate(28.0039 12)"/>
</clipPath>
</defs>
</svg>
