<svg width="148" height="44" viewBox="0 0 148 44" fill="none" xmlns="http://www.w3.org/2000/svg">
<g opacity="0.7">
<path d="M14.7914 25.8575C14.7399 25.1574 14.7254 24.455 14.7481 23.7533L14.7472 23.7842C15.3743 23.1341 15.7654 22.2926 15.8581 21.3942L15.8597 21.3767C16.1422 21.3533 16.5881 21.0783 16.7181 19.9883C16.7573 19.8006 16.7425 19.6056 16.6754 19.426C16.6083 19.2463 16.4916 19.0894 16.3389 18.9733L16.3364 18.9717C16.7964 17.5883 17.7514 13.3083 14.5689 12.8667C14.2414 12.2917 13.4031 12 12.3131 12C7.95224 12.08 7.42641 15.2925 8.37974 18.9717C8.22581 19.0888 8.1084 19.2473 8.04125 19.4286C7.97411 19.61 7.96 19.8067 8.00057 19.9958L7.99974 19.9892C8.13307 21.0775 8.57557 21.3542 8.85807 21.3775C8.95717 22.286 9.36071 23.1342 10.0031 23.7842C10.0242 24.4981 10.0081 25.2127 9.95474 25.925L9.95891 25.8575C9.09391 28.1775 3.27057 27.5258 3.00391 32H21.7189C21.4506 27.5258 15.6539 28.1775 14.7906 25.8575H14.7914Z" fill="white"/>
</g>
<path opacity="0.7" d="M31.5352 20.0781V19C32.5508 18.901 33.2591 18.737 33.6602 18.5078C34.0612 18.2734 34.3607 17.724 34.5586 16.8594H35.668V28H34.168V20.0781H31.5352ZM44.4336 19.6328H45.7695V21.0781C45.8789 20.7969 46.1471 20.4557 46.5742 20.0547C47.0013 19.6484 47.4935 19.4453 48.0508 19.4453C48.0768 19.4453 48.1211 19.4479 48.1836 19.4531C48.2461 19.4583 48.3529 19.4688 48.5039 19.4844V20.9688C48.4206 20.9531 48.3424 20.9427 48.2695 20.9375C48.2018 20.9323 48.1263 20.9297 48.043 20.9297C47.3346 20.9297 46.7904 21.1589 46.4102 21.6172C46.0299 22.0703 45.8398 22.5938 45.8398 23.1875V28H44.4336V19.6328ZM53.043 27.0938C53.9753 27.0938 54.6133 26.7422 54.957 26.0391C55.306 25.3307 55.4805 24.5443 55.4805 23.6797C55.4805 22.8984 55.3555 22.263 55.1055 21.7734C54.7096 21.0026 54.0273 20.6172 53.0586 20.6172C52.1992 20.6172 51.5742 20.9453 51.1836 21.6016C50.793 22.2578 50.5977 23.0495 50.5977 23.9766C50.5977 24.8672 50.793 25.6094 51.1836 26.2031C51.5742 26.7969 52.194 27.0938 53.043 27.0938ZM53.0977 19.3906C54.1758 19.3906 55.0872 19.75 55.832 20.4688C56.5768 21.1875 56.9492 22.2448 56.9492 23.6406C56.9492 24.9896 56.6211 26.1042 55.9648 26.9844C55.3086 27.8646 54.2904 28.3047 52.9102 28.3047C51.7591 28.3047 50.8451 27.9167 50.168 27.1406C49.4909 26.3594 49.1523 25.3125 49.1523 24C49.1523 22.5938 49.5091 21.474 50.2227 20.6406C50.9362 19.8073 51.8945 19.3906 53.0977 19.3906ZM61.9492 27.0938C62.8815 27.0938 63.5195 26.7422 63.8633 26.0391C64.2122 25.3307 64.3867 24.5443 64.3867 23.6797C64.3867 22.8984 64.2617 22.263 64.0117 21.7734C63.6159 21.0026 62.9336 20.6172 61.9648 20.6172C61.1055 20.6172 60.4805 20.9453 60.0898 21.6016C59.6992 22.2578 59.5039 23.0495 59.5039 23.9766C59.5039 24.8672 59.6992 25.6094 60.0898 26.2031C60.4805 26.7969 61.1003 27.0938 61.9492 27.0938ZM62.0039 19.3906C63.082 19.3906 63.9935 19.75 64.7383 20.4688C65.4831 21.1875 65.8555 22.2448 65.8555 23.6406C65.8555 24.9896 65.5273 26.1042 64.8711 26.9844C64.2148 27.8646 63.1966 28.3047 61.8164 28.3047C60.6654 28.3047 59.7513 27.9167 59.0742 27.1406C58.3971 26.3594 58.0586 25.3125 58.0586 24C58.0586 22.5938 58.4154 21.474 59.1289 20.6406C59.8424 19.8073 60.8008 19.3906 62.0039 19.3906ZM67.5352 19.6328H68.9258V20.8203C69.2591 20.4089 69.5612 20.1094 69.832 19.9219C70.2956 19.6042 70.8216 19.4453 71.4102 19.4453C72.0768 19.4453 72.6133 19.6094 73.0195 19.9375C73.2487 20.125 73.457 20.401 73.6445 20.7656C73.957 20.3177 74.3242 19.987 74.7461 19.7734C75.168 19.5547 75.6419 19.4453 76.168 19.4453C77.293 19.4453 78.0586 19.8516 78.4648 20.6641C78.6836 21.1016 78.793 21.6901 78.793 22.4297V28H77.332V22.1875C77.332 21.6302 77.1914 21.2474 76.9102 21.0391C76.6341 20.8307 76.2956 20.7266 75.8945 20.7266C75.3424 20.7266 74.8659 20.9115 74.4648 21.2812C74.069 21.651 73.8711 22.2682 73.8711 23.1328V28H72.4414V22.5391C72.4414 21.9714 72.3737 21.5573 72.2383 21.2969C72.0247 20.9062 71.6263 20.7109 71.043 20.7109C70.5117 20.7109 70.0273 20.9167 69.5898 21.3281C69.1576 21.7396 68.9414 22.4844 68.9414 23.5625V28H67.5352V19.6328ZM81.1602 29.6328C81.5195 29.5703 81.7721 29.3177 81.918 28.875C81.9961 28.6406 82.0352 28.4141 82.0352 28.1953C82.0352 28.1589 82.0326 28.125 82.0273 28.0938C82.0273 28.0677 82.0221 28.0365 82.0117 28H81.1602V26.2969H82.832V27.875C82.832 28.4948 82.707 29.0391 82.457 29.5078C82.207 29.9766 81.7747 30.2656 81.1602 30.375V29.6328ZM89.2383 28C89.2904 27.0365 89.4883 26.1979 89.832 25.4844C90.181 24.7708 90.8581 24.1224 91.8633 23.5391L93.3633 22.6719C94.0352 22.2812 94.5065 21.9479 94.7773 21.6719C95.2044 21.2396 95.418 20.7448 95.418 20.1875C95.418 19.5365 95.2227 19.0208 94.832 18.6406C94.4414 18.2552 93.9206 18.0625 93.2695 18.0625C92.306 18.0625 91.6393 18.4271 91.2695 19.1562C91.0716 19.5469 90.9622 20.0885 90.9414 20.7812H89.5117C89.5273 19.8073 89.707 19.013 90.0508 18.3984C90.6602 17.3151 91.7357 16.7734 93.2773 16.7734C94.5586 16.7734 95.4935 17.1198 96.082 17.8125C96.6758 18.5052 96.9727 19.276 96.9727 20.125C96.9727 21.0208 96.6576 21.7865 96.0273 22.4219C95.6628 22.7917 95.0091 23.2396 94.0664 23.7656L92.9961 24.3594C92.4857 24.6406 92.0846 24.9089 91.793 25.1641C91.2721 25.6172 90.944 26.1198 90.8086 26.6719H96.918V28H89.2383ZM104.207 25.7734C104.207 26.1797 104.355 26.5 104.652 26.7344C104.949 26.9688 105.301 27.0859 105.707 27.0859C106.202 27.0859 106.681 26.9714 107.145 26.7422C107.926 26.362 108.316 25.7396 108.316 24.875V23.7422C108.145 23.8516 107.923 23.9427 107.652 24.0156C107.382 24.0885 107.116 24.1406 106.855 24.1719L106.004 24.2812C105.493 24.349 105.111 24.4557 104.855 24.6016C104.423 24.8464 104.207 25.237 104.207 25.7734ZM107.613 22.9297C107.936 22.888 108.152 22.7526 108.262 22.5234C108.324 22.3984 108.355 22.2188 108.355 21.9844C108.355 21.5052 108.184 21.1589 107.84 20.9453C107.501 20.7266 107.014 20.6172 106.379 20.6172C105.645 20.6172 105.124 20.8151 104.816 21.2109C104.645 21.4297 104.533 21.7552 104.48 22.1875H103.168C103.194 21.1562 103.527 20.4401 104.168 20.0391C104.814 19.6328 105.561 19.4297 106.41 19.4297C107.395 19.4297 108.194 19.6172 108.809 19.9922C109.418 20.3672 109.723 20.9505 109.723 21.7422V26.5625C109.723 26.7083 109.751 26.8255 109.809 26.9141C109.871 27.0026 109.999 27.0469 110.191 27.0469C110.254 27.0469 110.324 27.0443 110.402 27.0391C110.48 27.0286 110.564 27.0156 110.652 27V28.0391C110.434 28.1016 110.267 28.1406 110.152 28.1562C110.038 28.1719 109.882 28.1797 109.684 28.1797C109.199 28.1797 108.848 28.0078 108.629 27.6641C108.514 27.4818 108.434 27.224 108.387 26.8906C108.1 27.2656 107.689 27.5911 107.152 27.8672C106.616 28.1432 106.025 28.2812 105.379 28.2812C104.603 28.2812 103.967 28.0469 103.473 27.5781C102.983 27.1042 102.738 26.513 102.738 25.8047C102.738 25.0286 102.98 24.4271 103.465 24C103.949 23.5729 104.585 23.3099 105.371 23.2109L107.613 22.9297ZM112.926 23.9141C112.926 24.8099 113.116 25.5599 113.496 26.1641C113.876 26.7682 114.486 27.0703 115.324 27.0703C115.975 27.0703 116.509 26.7917 116.926 26.2344C117.348 25.6719 117.559 24.8672 117.559 23.8203C117.559 22.763 117.342 21.9818 116.91 21.4766C116.478 20.9661 115.944 20.7109 115.309 20.7109C114.6 20.7109 114.025 20.9818 113.582 21.5234C113.145 22.0651 112.926 22.862 112.926 23.9141ZM115.043 19.4844C115.684 19.4844 116.22 19.6198 116.652 19.8906C116.902 20.0469 117.186 20.3203 117.504 20.7109V16.4844H118.855V28H117.59V26.8359C117.262 27.3516 116.874 27.724 116.426 27.9531C115.978 28.1823 115.465 28.2969 114.887 28.2969C113.954 28.2969 113.147 27.9062 112.465 27.125C111.783 26.3385 111.441 25.2943 111.441 23.9922C111.441 22.7734 111.751 21.7188 112.371 20.8281C112.996 19.9323 113.887 19.4844 115.043 19.4844ZM122.348 19.6328V25.1875C122.348 25.6146 122.415 25.9635 122.551 26.2344C122.801 26.7344 123.267 26.9844 123.949 26.9844C124.928 26.9844 125.595 26.5469 125.949 25.6719C126.142 25.2031 126.238 24.5599 126.238 23.7422V19.6328H127.645V28H126.316L126.332 26.7656C126.15 27.0833 125.923 27.3516 125.652 27.5703C125.116 28.0078 124.465 28.2266 123.699 28.2266C122.507 28.2266 121.694 27.8281 121.262 27.0312C121.027 26.6042 120.91 26.0339 120.91 25.3203V19.6328H122.348ZM129.887 16.5234H131.293V28H129.887V16.5234ZM133.691 17.2969H135.113V19.6328H136.449V20.7812H135.113V26.2422C135.113 26.5339 135.212 26.7292 135.41 26.8281C135.52 26.8854 135.702 26.9141 135.957 26.9141C136.025 26.9141 136.098 26.9141 136.176 26.9141C136.254 26.9089 136.345 26.901 136.449 26.8906V28C136.288 28.0469 136.118 28.0807 135.941 28.1016C135.77 28.1224 135.582 28.1328 135.379 28.1328C134.723 28.1328 134.277 27.9661 134.043 27.6328C133.809 27.2943 133.691 26.8568 133.691 26.3203V20.7812H132.559V19.6328H133.691V17.2969ZM138.699 25.375C138.741 25.8438 138.858 26.2031 139.051 26.4531C139.405 26.9062 140.02 27.1328 140.895 27.1328C141.415 27.1328 141.874 27.0208 142.27 26.7969C142.665 26.5677 142.863 26.2161 142.863 25.7422C142.863 25.3828 142.704 25.1094 142.387 24.9219C142.184 24.8073 141.783 24.6745 141.184 24.5234L140.066 24.2422C139.353 24.0651 138.827 23.8672 138.488 23.6484C137.884 23.2682 137.582 22.7422 137.582 22.0703C137.582 21.2786 137.866 20.638 138.434 20.1484C139.007 19.6589 139.775 19.4141 140.738 19.4141C141.999 19.4141 142.908 19.7839 143.465 20.5234C143.814 20.9922 143.983 21.4974 143.973 22.0391H142.645C142.618 21.7214 142.507 21.4323 142.309 21.1719C141.986 20.8021 141.426 20.6172 140.629 20.6172C140.098 20.6172 139.694 20.7188 139.418 20.9219C139.147 21.125 139.012 21.3932 139.012 21.7266C139.012 22.0911 139.191 22.3828 139.551 22.6016C139.759 22.7318 140.066 22.8464 140.473 22.9453L141.402 23.1719C142.413 23.4167 143.09 23.6536 143.434 23.8828C143.98 24.2422 144.254 24.8073 144.254 25.5781C144.254 26.3229 143.97 26.9661 143.402 27.5078C142.84 28.0495 141.98 28.3203 140.824 28.3203C139.579 28.3203 138.697 28.0391 138.176 27.4766C137.66 26.9089 137.384 26.2083 137.348 25.375H138.699Z" fill="white"/>
</svg>
