<svg width="148" height="42" viewBox="0 0 148 42" fill="none" xmlns="http://www.w3.org/2000/svg">
<path d="M0.00390625 21C0.00390625 9.40202 9.40593 0 21.0039 0H126.004C137.602 0 147.004 9.40202 147.004 21C147.004 32.598 137.602 42 126.004 42H21.0039C9.40593 42 0.00390625 32.598 0.00390625 21Z" fill="white"/>
<path opacity="0.7" d="M49.4648 23.4453C49.5378 23.9714 49.681 24.3646 49.8945 24.625C50.2852 25.099 50.9544 25.3359 51.9023 25.3359C52.4701 25.3359 52.931 25.2734 53.2852 25.1484C53.957 24.9089 54.293 24.4635 54.293 23.8125C54.293 23.4323 54.1263 23.138 53.793 22.9297C53.4596 22.7266 52.9362 22.5469 52.2227 22.3906L51.0039 22.1172C49.806 21.8464 48.9779 21.5521 48.5195 21.2344C47.7435 20.7031 47.3555 19.8724 47.3555 18.7422C47.3555 17.7109 47.7305 16.8542 48.4805 16.1719C49.2305 15.4896 50.332 15.1484 51.7852 15.1484C52.9987 15.1484 54.0326 15.4714 54.8867 16.1172C55.7461 16.7578 56.1966 17.6901 56.2383 18.9141H53.9258C53.8841 18.2214 53.582 17.7292 53.0195 17.4375C52.6445 17.2448 52.1784 17.1484 51.6211 17.1484C51.0013 17.1484 50.5065 17.2734 50.1367 17.5234C49.7669 17.7734 49.582 18.1224 49.582 18.5703C49.582 18.9818 49.7643 19.2891 50.1289 19.4922C50.3633 19.6276 50.8633 19.7865 51.6289 19.9688L53.6133 20.4453C54.4831 20.6536 55.1393 20.9323 55.582 21.2812C56.2695 21.8229 56.6133 22.6068 56.6133 23.6328C56.6133 24.6849 56.2096 25.5599 55.4023 26.2578C54.6003 26.9505 53.4648 27.2969 51.9961 27.2969C50.4961 27.2969 49.3164 26.9557 48.457 26.2734C47.5977 25.5859 47.168 24.6432 47.168 23.4453H49.4648ZM61.5742 20.0938C61.0586 20.0938 60.6576 20.2552 60.3711 20.5781C60.0898 20.901 59.9128 21.3385 59.8398 21.8906H63.3008C63.2643 21.3021 63.0846 20.8568 62.7617 20.5547C62.444 20.2474 62.0482 20.0938 61.5742 20.0938ZM61.5742 18.2578C62.2826 18.2578 62.9206 18.3906 63.4883 18.6562C64.056 18.9219 64.5247 19.3411 64.8945 19.9141C65.2279 20.4193 65.444 21.0052 65.543 21.6719C65.6003 22.0625 65.6237 22.625 65.6133 23.3594H59.7852C59.8164 24.2135 60.0846 24.8125 60.5898 25.1562C60.8971 25.3698 61.2669 25.4766 61.6992 25.4766C62.1576 25.4766 62.5299 25.3464 62.8164 25.0859C62.9727 24.9453 63.1107 24.75 63.2305 24.5H65.5039C65.4466 25.0052 65.1836 25.5182 64.7148 26.0391C63.9857 26.8672 62.9648 27.2812 61.6523 27.2812C60.569 27.2812 59.6133 26.9323 58.7852 26.2344C57.957 25.5365 57.543 24.401 57.543 22.8281C57.543 21.3542 57.9154 20.224 58.6602 19.4375C59.4102 18.651 60.3815 18.2578 61.5742 18.2578ZM71.8164 22.8594C71.6758 22.9479 71.5326 23.0208 71.3867 23.0781C71.2461 23.1302 71.0508 23.1797 70.8008 23.2266L70.3008 23.3203C69.832 23.4036 69.4961 23.5052 69.293 23.625C68.9492 23.8281 68.7773 24.1432 68.7773 24.5703C68.7773 24.9505 68.8815 25.2266 69.0898 25.3984C69.3034 25.5651 69.5612 25.6484 69.8633 25.6484C70.3424 25.6484 70.7826 25.5078 71.1836 25.2266C71.5898 24.9453 71.8008 24.4323 71.8164 23.6875V22.8594ZM70.4648 21.8203C70.8763 21.7682 71.1706 21.7031 71.3477 21.625C71.6654 21.4896 71.8242 21.2786 71.8242 20.9922C71.8242 20.6432 71.7018 20.4036 71.457 20.2734C71.2174 20.138 70.8633 20.0703 70.3945 20.0703C69.8685 20.0703 69.4961 20.2005 69.2773 20.4609C69.1211 20.6536 69.0169 20.9141 68.9648 21.2422H66.8164C66.8633 20.4974 67.0716 19.8854 67.4414 19.4062C68.0299 18.6562 69.0404 18.2812 70.4727 18.2812C71.4049 18.2812 72.2331 18.4661 72.957 18.8359C73.681 19.2057 74.043 19.9036 74.043 20.9297V24.8359C74.043 25.1068 74.0482 25.4349 74.0586 25.8203C74.0742 26.112 74.1185 26.3099 74.1914 26.4141C74.2643 26.5182 74.3737 26.6042 74.5195 26.6719V27H72.0977C72.0299 26.8281 71.9831 26.6667 71.957 26.5156C71.931 26.3646 71.9102 26.1927 71.8945 26C71.5872 26.3333 71.2331 26.6172 70.832 26.8516C70.3529 27.1276 69.8112 27.2656 69.207 27.2656C68.4362 27.2656 67.7982 27.0469 67.293 26.6094C66.793 26.1667 66.543 25.5417 66.543 24.7344C66.543 23.6875 66.9466 22.9297 67.7539 22.4609C68.1966 22.2057 68.8477 22.0234 69.707 21.9141L70.4648 21.8203ZM80.6523 18.2812C80.694 18.2812 80.7279 18.2839 80.7539 18.2891C80.7852 18.2891 80.8503 18.2917 80.9492 18.2969V20.5781C80.8086 20.5625 80.6836 20.5521 80.5742 20.5469C80.4648 20.5417 80.3763 20.5391 80.3086 20.5391C79.4128 20.5391 78.8112 20.8307 78.5039 21.4141C78.332 21.7422 78.2461 22.2474 78.2461 22.9297V27H76.0039V18.4844H78.1289V19.9688C78.4727 19.401 78.7721 19.013 79.0273 18.8047C79.444 18.4557 79.9857 18.2812 80.6523 18.2812ZM87.3477 21.5391C87.306 21.2214 87.1992 20.9349 87.0273 20.6797C86.7773 20.3359 86.3893 20.1641 85.8633 20.1641C85.1133 20.1641 84.6003 20.5365 84.3242 21.2812C84.1784 21.6771 84.1055 22.2031 84.1055 22.8594C84.1055 23.4844 84.1784 23.987 84.3242 24.3672C84.5898 25.0755 85.0898 25.4297 85.8242 25.4297C86.3451 25.4297 86.7148 25.2891 86.9336 25.0078C87.1523 24.7266 87.2852 24.362 87.332 23.9141H89.6055C89.5534 24.5911 89.3086 25.2318 88.8711 25.8359C88.1732 26.8099 87.1393 27.2969 85.7695 27.2969C84.3997 27.2969 83.3919 26.8906 82.7461 26.0781C82.1003 25.2656 81.7773 24.2109 81.7773 22.9141C81.7773 21.4505 82.1341 20.3125 82.8477 19.5C83.5612 18.6875 84.5456 18.2812 85.8008 18.2812C86.8685 18.2812 87.7409 18.5208 88.418 19C89.1003 19.4792 89.5039 20.3255 89.6289 21.5391H87.3477ZM95.8633 18.2656C96.3893 18.2656 96.8659 18.3568 97.293 18.5391C97.7253 18.7214 98.0794 19 98.3555 19.375C98.5898 19.6927 98.7331 20.0208 98.7852 20.3594C98.8372 20.6927 98.8633 21.2396 98.8633 22V27H96.5898V21.8203C96.5898 21.362 96.5117 20.9922 96.3555 20.7109C96.1523 20.3151 95.7669 20.1172 95.1992 20.1172C94.6107 20.1172 94.1628 20.3151 93.8555 20.7109C93.5534 21.1016 93.4023 21.6615 93.4023 22.3906V27H91.1836V15.5234H93.4023V19.5938C93.7253 19.099 94.0977 18.7552 94.5195 18.5625C94.9466 18.3646 95.3945 18.2656 95.8633 18.2656Z" fill="#2659C3"/>
</svg>
